<svg xmlns="http://www.w3.org/2000/svg" width="37" height="36"><path fill="#D6180B" fill-rule="evenodd" d="M11.235 27.391L8.488 36H0c1.02-3.13 2.015-6 2.954-8.609h8.281zm20.602-5.639C33.525 26.172 35.322 31.043 37 36h-8.39l-2.882-8.215c2.29-.998 4.09-2.494 5.353-4.58.269-.445.521-.973.756-1.453zm-7.798 6.611L26.73 36h-1.88l-2.546-7.227c.548-.077 1.14-.236 1.736-.41zM35.884 9.13c.22 0 .268.284.088.377l-2.903 1.376-.002-.002-.017.01-.862-.387.881.398s-.89 6.714-3.43 11.095l-.144.24c-2.648 4.372-7.542 4.893-9.591 4.893h-.085L22.967 36h-1.875l-3.435-9.734c-.044-.136-.006-.155.09-.197 1.384-.545 1.697-.765 2.681-1.286l.301-.201c2.668-1.855 4.143-4.923 4.747-6.419.044-.09.034-.238-.058-.283-.089-.049-.167-.064-.256.03-1.67 1.802-3.318 2.935-4.886 3.642 1.568-.699 3.215-1.825 4.887-3.627.088-.094.166-.038.255.01-.19.338-.392.699-.603 1.025-2.478 3.822-6.249 6.605-12.382 6.605H3.945c-.222 0-.222-.282-.133-.373l2.233-2.38c-3.125 0-4.915-1.855-5.586-3.955-.044-.136-.132-.335.137-.335h9.512c.984 0 1.699-.363 2.281-.864l7.56-6.494c-2.846 2.518-6.723 6.34-10.215 11.27-.038.054-.037.107-.014.15-.012-.043-.004-.096.035-.15 3.492-4.931 7.348-8.732 10.193-11.25 2.471-2.184 4.17-3.358 4.17-3.358 1.163-.78 2.464-1.182 3.948-1.182 2.501 0 4.2 1.552 4.69 2.508l-.013-.022zM23.33 0c.385.783 1.168 2.542 2.284 5.034-.885.248-1.729.671-2.515 1.196l-.028.016c-.06.041-1.303.903-3.195 2.5a130.524 130.524 0 00-1.28-3.124c-.871 1.906-1.709 4.115-2.512 6.348l-4.9 4.155c-.222.191-.508.31-1.076.31h-3.5C10.068 8.087 13.026 1.826 13.82 0zm6.355 9.616a1.536 1.536 0 00-2.202 0c-.61.622-.61 1.63 0 2.253a1.533 1.533 0 002.202 0c.61-.623.61-1.63 0-2.253zm-1.07.058a.72.72 0 011.031 0 .757.757 0 01.001 1.055.72.72 0 01-1.033 0 .758.758 0 010-1.055z"/></svg>