<?xml version="1.0" encoding="utf-8"?>
<!-- Generator: Adobe Illustrator 28.0.0, SVG Export Plug-In . SVG Version: 6.00 Build 0)  -->
<svg version="1.1" id="Слой_1" xmlns="http://www.w3.org/2000/svg" xmlns:xlink="http://www.w3.org/1999/xlink" x="0px" y="0px"
	 viewBox="0 0 752.5882568 1000" enable-background="new 0 0 752.5882568 1000" xml:space="preserve">
<path fill="#009900" d="M580.3026123,116.5383606c0,21.7679901-7.6984253,52.0307922-38.4921265,52.0307922
	c-37.1648865,0-37.1648865-41.6777344-37.1648865-50.4380188s0-53.3581085,38.2267151-53.3581085
	C577.6480103,64.7730255,580.3026123,103.2651978,580.3026123,116.5383606z M504.9110413,0h-24.9535217v160.6052551
	l-0.5309143,23.8916931h24.1571655l0.5309143-20.1752014c3.2788391,5.4212036,7.7219238,10.045639,13.0076904,13.53862
	c8.836792,5.7441406,19.1943359,8.7034302,29.7318726,8.494812c18.4282227,0.4161835,35.9250488-8.0850677,46.9869995-22.829834
	c6.6365356-8.7602844,12.7422485-22.829834,12.7422485-48.8452377c0-29.2009583-9.0257568-42.4741211-15.6623535-50.172554
	C578.7098389,50.7034721,561.9856567,47.51791,548.4470215,47.51791c-30.2627563,0-40.0849609,16.7241859-43.5359497,22.8298378V0
	H504.9110413z"/>
<path fill="#009900" d="M649.8540039,121.8476257c0-11.9458466,0-54.41996,39.819397-54.41996
	c29.4664307,0,36.6339111,24.9535446,36.6339111,49.1106949c0,9.5566711-1.3273315,28.6700287-10.8839722,41.6777344
	c-8.494873,11.6803741-21.7680664,13.0076904-28.1391602,13.0076904
	C652.2431641,171.4892426,649.8540039,138.3063354,649.8540039,121.8476257z M625.6968384,236.2622681h24.6880493v-66.365799
	c7.1675415,11.6803741,21.5025635,19.909729,40.8813477,19.909729c31.8555908,0,60.7910767-21.7679749,60.7910767-71.6750641
	s-27.3427124-69.2859039-56.0126953-69.2859039c-10.8840332,0-32.9174194,3.1855583-45.659668,24.1571541l-0.5309448-22.0334473
	h-25.2189941c0.5309448,12.7422333,0.7963867,15.9277954,0.7963867,21.7679901v163.5253296H625.6968384z"/>
<path fill-rule="evenodd" clip-rule="evenodd" fill="#009900" d="M427.3957825,328.3779907
	c-13.9284973-32.354187-31.0940247-63.2165222-51.2344055-92.1157227
	c-20.0202332,28.9740295-37.1789551,59.8241272-51.2344055,92.1157227
	c19.8916321,21.0706177,37.1004333,44.5209961,51.2344055,69.8168335
	C390.1621704,372.8136292,407.3828125,349.3471985,427.3957825,328.3779907z"/>
<path fill-rule="evenodd" clip-rule="evenodd" fill="#009900" d="M325.1924438,907.8842163
	c13.9285278,32.354248,31.0940247,63.2166138,51.2344055,92.1157837
	c9.0257568-13.8041382,32.3865051-47.7833862,51.234436-92.1157837
	c-19.8092041-21.1391602-37.0102844-44.5789795-51.234436-69.8167725
	C362.2027283,863.3052368,345.0016479,886.7450562,325.1924438,907.8842163z"/>
<path fill-rule="evenodd" clip-rule="evenodd" fill="#009900" d="M325.1924438,328.3779907
	c-24.2987976-25.5583801-50.9642334-48.7572937-79.6389618-69.2858887
	c-8.9241638,34.0554199-14.437561,68.9143677-16.4587097,104.0615845
	c25.8728027,12.9833069,50.0370636,29.1225586,71.9405365,48.0488586
	C305.5615845,382.6858826,313.6784363,354.8565979,325.1924438,328.3779907z"/>
<path fill-rule="evenodd" clip-rule="evenodd" fill="#009900" d="M427.3957825,907.8842163
	c24.236908,25.6230469,50.908783,48.8276367,79.6389771,69.2859497
	c8.8996887-34.0606079,14.4127502-68.9171143,16.4587097-104.0616455
	c-25.8164062-13.0800171-49.9693604-29.211731-71.9405518-48.0488281
	C446.8652649,853.539917,438.7541199,881.3495483,427.3957825,907.8842163z"/>
<path fill-rule="evenodd" clip-rule="evenodd" fill="#009900" d="M229.0947723,363.1536865
	c-31.4889221-15.8200073-64.4823456-28.4481812-98.4868469-37.6957703
	c3.3193054,35.0875244,10.076828,69.7641907,20.1752014,103.5306702
	c28.7026825,3.3023987,56.8819122,10.1688538,83.8863678,20.4406738
	C229.3239899,421.002655,227.4520264,392.0318604,229.0947723,363.1536865z"/>
<path fill-rule="evenodd" clip-rule="evenodd" fill="#009900" d="M523.2280273,873.1085205
	c31.4889526,15.8200684,64.4823608,28.4483032,98.4868774,37.6958008
	c-3.3193359-35.0875244-10.0768433-69.7642212-20.1752319-103.5306396
	c-28.7121582-3.3990479-56.8903809-10.3544312-83.8864136-20.7061157
	C523.2545776,815.0510254,525.12854,844.1418457,523.2280273,873.1085205z"/>
<path fill-rule="evenodd" clip-rule="evenodd" fill="#009900" d="M185.5587921,508.0965881
	c-14.7766113-24.8514404-26.4553833-51.418396-34.7756653-79.1080322
	c-34.9820251-4.0989685-70.2841339-4.7214355-105.3889084-1.8582458
	c15.1768684,31.7198181,33.3084946,61.9391785,54.1544876,90.2575073
	C127.7148056,510.6910706,156.6123505,507.569458,185.5587921,508.0965881z"/>
<path fill-rule="evenodd" clip-rule="evenodd" fill="#009900" d="M566.7639771,728.1655884
	c14.8858032,24.795166,26.5707397,51.3760376,34.7756958,79.1080322c34.9820557,4.098999,70.2841797,4.7214966,105.388916,1.8582764
	c-15.2341309-31.8286133-33.4558716-62.1389771-54.4199219-90.5230103
	C624.449707,725.4273682,595.6356201,728.638855,566.7639771,728.1655884z"/>
<path fill-rule="evenodd" clip-rule="evenodd" fill="#009900" d="M99.5487061,517.3878174
	C65.3542252,525.6176758,32.0209427,537.0843506,0,551.6325684c25.1336517,24.7209473,52.6048698,46.9468384,82.0281372,66.3658447
	c24.1379089-15.9341431,50.1797333-28.7766724,77.5152588-38.2266846
	C137.0923004,561.4837646,116.946434,540.5355835,99.5487061,517.3878174z"/>
<path fill-rule="evenodd" clip-rule="evenodd" fill="#009900" d="M670.5601196,617.9984131
	c-24.1379395,15.934082-50.1797485,28.7766113-77.5152588,38.2266846
	c22.435791,18.2198486,42.5016479,39.1774902,59.729248,62.3839111
	c34.2214966-8.1367798,67.5636597-19.6065674,99.5487061-34.244751
	C727.3604736,659.5592651,699.9686279,637.3256226,670.5601196,617.9984131z"/>
<path fill-rule="evenodd" clip-rule="evenodd" fill="#009900" d="M159.543396,656.2250977
	c-27.3355255-9.4500732-53.3773499-22.2926025-77.5152664-38.2266846C52.6048698,637.4173584,25.1336441,659.6432495,0,684.3641357
	c31.9722481,14.6702271,65.3175812,26.1410522,99.5487061,34.244751
	C117.0163345,695.5206909,137.1545715,674.5805054,159.543396,656.2250977z"/>
<path fill-rule="evenodd" clip-rule="evenodd" fill="#009900" d="M593.0447998,579.7716675
	c27.3126831,9.5046997,53.3479004,22.3439941,77.5152588,38.2266846
	c29.4233398-19.4189453,56.8945923-41.6448364,82.0281982-66.3657837
	c-31.97229-14.6702271-65.3175659-26.1410522-99.5487061-34.244751
	C635.6417847,540.5355835,615.4959717,561.4837036,593.0447998,579.7716675z"/>
<path fill-rule="evenodd" clip-rule="evenodd" fill="#009900" d="M99.5487061,718.8743896
	c-21.067688,28.2643433-39.2121658,58.5941162-54.1544952,90.5229492
	c35.1091003,2.7232056,70.3976364,2.1009521,105.388916-1.8582764c8.320282-27.6896362,19.999054-54.2565308,34.7756653-79.1079712
	C156.6142426,728.609375,127.7481537,725.4019775,99.5487061,718.8743896z"/>
<path fill-rule="evenodd" clip-rule="evenodd" fill="#009900" d="M652.7740479,517.3878174
	c21.0212402-28.3457947,39.2463989-58.6617737,54.4199829-90.5229797
	c-35.1091309-2.7226868-70.397583-2.1004944-105.388916,1.8582153
	c-8.3203125,27.6896667-19.9990234,54.2566223-34.7756958,79.1080627
	C595.8931274,507.5204773,624.6870728,510.7296753,652.7740479,517.3878174z"/>
<path fill-rule="evenodd" clip-rule="evenodd" fill="#009900" d="M234.6694946,786.5675049
	c-27.0346069,10.2281494-55.197525,17.1797485-83.8863678,20.7061157
	c-10.0983887,33.7664185-16.8558807,68.4431152-20.1752014,103.5306396
	c34.0045166-9.2475586,66.9979248-21.8757935,98.4868469-37.6958008
	C227.4600525,844.1422119,229.3318481,815.0846558,234.6694946,786.5675049z"/>
<path fill-rule="evenodd" clip-rule="evenodd" fill="#009900" d="M517.6532593,449.4292603
	c27.0044556-10.2718201,55.1837158-17.1382751,83.8864136-20.4406738
	c10.0983887-33.7664795,16.855896-68.4431458,20.1752319-103.5306702
	c-34.0045166,9.2475891-66.9979248,21.8757629-98.4868774,37.6957703
	C525.1282959,392.0322571,523.2542725,421.0353699,517.6532593,449.4292603z"/>
<path fill-rule="evenodd" clip-rule="evenodd" fill="#009900" d="M229.0947723,873.1085205
	c2.0211487,35.1472168,7.5345459,70.0062256,16.4587097,104.0616455
	c28.7413788-20.4441528,55.4146271-43.6499023,79.6389618-69.2859497
	c-11.5140076-26.5708008-19.6304321-54.4877319-24.157135-83.0899658
	C279.1359558,843.7997437,254.9728241,860.0273438,229.0947723,873.1085205z"/>
<path fill-rule="evenodd" clip-rule="evenodd" fill="#009900" d="M523.2280273,363.1536865
	c-2.0211182-35.1472168-7.5345459-70.006134-16.4587097-104.061554
	c-28.7413635,20.4440918-55.4145813,43.6498413-79.6389771,69.2858887
	c11.3583374,26.5346375,19.4694824,54.3442688,24.157196,82.8245239
	C473.3031006,392.4240112,497.4487915,376.2971497,523.2280273,363.1536865z"/>
<path fill-rule="evenodd" clip-rule="evenodd" fill="#99CC00" d="M349.8805237,469.6044312
	c4.9015808-25.1348267,13.7728577-49.3292236,26.2808533-71.6750793
	c-14.1339722-25.2958374-31.3427734-48.7461853-51.2344055-69.8168335
	c-11.4786987,26.4913635-19.5942688,54.3160706-24.157135,82.8245239
	C320.1152039,427.7965698,336.6880188,447.5943298,349.8805237,469.6044312z"/>
<path fill-rule="evenodd" clip-rule="evenodd" fill="#99CC00" d="M402.4422607,766.6577759
	c-4.9459534,25.1224365-13.8147278,49.3099976-26.2808533,71.6750488
	c14.0439758,25.3535767,31.2607117,48.8147583,51.234375,69.8168945
	c11.3936157-26.6139526,19.5057068-54.5158081,24.1571655-83.0899658
	C432.1520081,808.3567505,415.5692444,788.6366577,402.4422607,766.6577759z"/>
<path fill-rule="evenodd" clip-rule="evenodd" fill="#99CC00" d="M234.6694946,449.4292603
	c23.888855,9.1069336,46.195282,21.9174805,66.1003418,37.9612427c-3.9825439-25.2398376-3.9825439-50.9481201,0-76.1879578
	c-21.9266968-18.8957825-46.0870667-35.0323792-71.9405212-48.0488586
	C227.4123383,392.0415039,229.3723145,420.9959412,234.6694946,449.4292603z"/>
<path fill-rule="evenodd" clip-rule="evenodd" fill="#99CC00" d="M517.6532593,786.5675049
	c-23.8888245-9.1069946-46.1952515-21.9174805-66.1003113-37.9611816
	c4.0291443,25.2434692,3.9395142,50.9731445-0.2654724,76.1879272
	c21.9267273,18.895813,46.0870972,35.0324707,71.9405518,48.0488892
	C525.1201782,843.9645386,523.2461548,814.9624634,517.6532593,786.5675049z"/>
<path fill-rule="evenodd" clip-rule="evenodd" fill="#99CC00" d="M260.6848755,521.1043091
	c-12.3919373-22.3727417-21.171936-46.5625-26.0153961-71.6750488
	c-27.0044556-10.2718201-55.1837006-17.1382751-83.8863831-20.4406738
	c8.3202972,27.6896667,19.9990692,54.2565918,34.7756805,79.1080627
	C211.1353149,508.3867493,236.4996796,512.7784424,260.6848755,521.1043091z"/>
<path fill-rule="evenodd" clip-rule="evenodd" fill="#99CC00" d="M491.6378784,715.1578979
	c12.3919373,22.3726807,21.1719971,46.5625,26.0153809,71.6751099
	c27.034668,10.2280884,55.1975708,17.1797485,83.8864136,20.7060547
	c-8.3203125-27.6896362-19.9990234-54.2565308-34.7756958-79.1079712
	C541.2037964,727.7418213,515.8867798,723.2688599,491.6378784,715.1578979z"/>
<path fill-rule="evenodd" clip-rule="evenodd" fill="#99CC00" d="M159.543396,579.7716675
	c24.1856689-8.3573608,49.5408936-12.8370972,75.1260834-13.2731323
	c-19.3293152-16.7012939-35.8247986-36.4241943-48.8452454-58.401947
	c-28.9403839-0.3949585-57.8216858,2.7249146-86.0100861,9.2912292
	C117.0417557,540.5941772,137.1076202,561.5518799,159.543396,579.7716675z"/>
<path fill-rule="evenodd" clip-rule="evenodd" fill="#99CC00" d="M593.0447998,656.2250977
	c-24.1856689,8.3573608-49.5408936,12.8370972-75.1260986,13.2731323
	c19.3292847,16.7012939,35.8248291,36.4241943,48.8452148,58.4019775c28.9584961,0.4575195,57.8583984-2.75354,86.0101318-9.5567017
	C635.3988647,695.3414307,615.3480835,674.4886475,593.0447998,656.2250977z"/>
<path fill-rule="evenodd" clip-rule="evenodd" fill="#99CC00" d="M225.3782806,617.9984131
	c-23.8555908-9.1237183-46.0854034-22.031311-65.8348694-38.2266846
	c-27.3355408,9.4500122-53.3773499,22.2925415-77.515274,38.2266846
	c24.1379242,15.934082,50.1797333,28.7766113,77.515274,38.2266846
	C179.3582916,640.1242676,201.5723419,627.225769,225.3782806,617.9984131z"/>
<path fill-rule="evenodd" clip-rule="evenodd" fill="#99CC00" d="M526.944519,617.9984131
	c23.9088745,9.1820679,46.2172241,22.083313,66.1002808,38.2266846
	c27.3126831-9.5047607,53.3479004-22.3440552,77.5152588-38.2266846
	c-24.1378784-15.9341431-50.1797485-28.7766724-77.5152588-38.2266846
	C573.2651367,596.0646362,550.9313965,608.9804688,526.944519,617.9984131z"/>
<path fill-rule="evenodd" clip-rule="evenodd" fill="#99CC00" d="M185.5587921,728.1655884
	c13.1040497-21.9185181,29.5890503-41.6288452,48.8452454-58.4019165
	c-25.5851898-0.4360352-50.9404297-4.9157715-75.1260986-13.2731323
	c-22.4357605,18.2197876-42.5016174,39.1774902-59.7292175,62.3838501
	C127.737114,725.4407349,156.6184082,728.5606079,185.5587921,728.1655884z"/>
<path fill-rule="evenodd" clip-rule="evenodd" fill="#99CC00" d="M566.7639771,508.0965881
	c-13.1040649,21.9184875-29.5890503,41.6288147-48.8452148,58.401947
	c25.5852051,0.4360352,50.9404297,4.9157715,75.1260986,13.2731323
	c22.435791-18.2197876,42.5016479-39.1774902,59.729248-62.3838501
	C624.6105347,510.6765442,595.7110596,507.5546875,566.7639771,508.0965881z"/>
<path fill-rule="evenodd" clip-rule="evenodd" fill="#99CC00" d="M260.6848755,715.1578979
	c-24.1851959,8.3258667-49.5495605,12.7175903-75.1260986,13.0076904
	c-14.7766113,24.8514404-26.455368,51.418335-34.7756805,79.1080322
	c28.7121429-3.3991089,56.8903656-10.3544312,83.8863831-20.7061157
	C239.5584106,761.5516968,248.3366699,737.4562378,260.6848755,715.1578979z"/>
<path fill-rule="evenodd" clip-rule="evenodd" fill="#99CC00" d="M491.6378784,521.1043091
	c24.1851807-8.3258667,49.5495605-12.7175598,75.1260986-13.0076599
	c14.8858032-24.795105,26.5707397-51.3760681,34.7756958-79.1080627
	c-28.7026978,3.3023987-56.881958,10.1688538-83.8864136,20.4406738
	C512.9309082,474.5750732,504.1440125,498.7837219,491.6378784,521.1043091z"/>
<path fill-rule="evenodd" clip-rule="evenodd" fill="#99CC00" d="M349.8805237,766.6577759
	c-13.1269836,21.9788208-29.7097473,41.6989136-49.1106873,58.4019165
	c4.5633545,28.5939941,12.6784973,56.5064087,24.1571655,83.0899048
	c19.8916321-21.0706177,37.1004028-44.5209351,51.234375-69.8167725
	C363.809082,815.9157104,354.9469604,791.7463379,349.8805237,766.6577759z"/>
<path fill-rule="evenodd" clip-rule="evenodd" fill="#99CC00" d="M300.7698364,748.8717651
	c-19.8676758,16.0983276-42.183197,28.9141235-66.1003418,37.9612427
	c-5.4691162,28.4108887-7.3420868,57.3969727-5.5747223,86.2755127
	c25.8163757-13.0800171,49.9693451-29.211731,71.9405365-48.0488281
	C296.8303528,799.8448486,296.7406921,774.1152344,300.7698364,748.8717651z"/>
<path fill-rule="evenodd" clip-rule="evenodd" fill="#99CC00" d="M402.4422607,469.6044312
	c13.209137-21.9201965,29.7816162-41.6280212,49.1106873-58.4019165
	c-4.5262756-28.5166626-12.643158-56.3459167-24.1571655-82.8245239
	c-19.8092041,21.1392517-37.0102844,44.5790405-51.2344055,69.8168335
	C388.710083,420.4274292,397.5847168,444.5412598,402.4422607,469.6044312z"/>
<path fill-rule="evenodd" clip-rule="evenodd" fill="#99CC00" d="M451.552948,487.3905029
	c19.8303223-16.152771,42.1550293-28.9737854,66.1003113-37.9612427
	c5.4691772-28.4109192,7.3421021-57.3970642,5.5747681-86.2755737
	c-25.8164062,13.0799866-49.9693604,29.2116699-71.9405518,48.0488281
	C455.4924622,436.4172974,455.5820923,462.1470337,451.552948,487.3905029z"/>
<path fill-rule="evenodd" clip-rule="evenodd" fill="#FFFFFF" d="M350.1459656,546.5887451
	c-12.5074768-22.642395-29.2737122-42.6537476-49.3761292-58.9328003
	c4.2608643,25.4759521,13.16922,49.951416,26.2808533,72.2059937
	c-19.5273743-16.8579102-42.0366211-29.913269-66.3658142-38.4921875
	c12.66922,22.5310669,29.4116821,42.5139771,49.3761597,58.9328613
	c-24.1381226-9.2487793-49.8094482-13.8426514-75.6570129-13.5386963
	c19.5994415,16.8323975,42.2077942,29.8029175,66.6312561,38.2267456
	c-25.8318481-0.4047852-51.5056,4.0993652-75.6570129,13.2731323c24.1985168,9.0012817,49.8395996,13.4996948,75.6570129,13.2731323
	c-24.4234619,8.4238281-47.0318146,21.3943481-66.6312561,38.2267456
	c25.8475647,0.3039551,51.5188904-4.289917,75.6570129-13.5386963
	c-20.0242004,16.3584595-36.7768555,36.3535767-49.3761597,58.9328613
	c24.3083496-8.6240234,46.8096313-21.6748047,66.3658142-38.4921875
	c-13.2252502,22.2008057-22.141571,46.6982422-26.2808533,72.2060547
	c19.9096375-16.4740601,36.6429443-36.446106,49.3761292-58.9328613c-4.7823792,25.4385986-4.7823792,51.5456543,0,76.984314
	c13.1430969-22.2396851,22.0536499-46.7211914,26.2808533-72.2060547
	c4.1827698,25.496521,13.0962219,49.9859619,26.2808533,72.2060547c4.7823792-25.4386597,4.7823792-51.5457153,0-76.984314
	c12.6625977,22.5355835,29.4060364,42.5197144,49.3761597,58.9328613
	c-4.2373352-25.5217896-13.2430725-50.017334-26.5463257-72.2059937
	c19.6218872,16.8649292,42.2192688,29.9191895,66.6312866,38.4921265
	c-12.5993347-22.5792847-29.3519592-42.5744019-49.3761597-58.9328613
	c24.1381226,9.2487793,49.8094177,13.8426514,75.6570129,13.5386963
	c-19.6515198-16.8231201-42.2406921-29.8726196-66.6312866-38.4921875
	c25.8318176,0.4047241,51.5056152-4.0994263,75.6570435-13.2731934
	c-24.1923828-9.0239258-49.837677-13.5231323-75.6570435-13.2731323
	c24.4234924-8.4238281,47.0318298-21.3942871,66.6312866-38.2266846
	c-25.8475952-0.3039551-51.5188904,4.289856-75.6570129,13.5386353
	c20.1016846-16.3521729,36.942627-36.3451538,49.6416016-58.9328613
	c-24.4120178,8.572998-47.0094299,21.6272583-66.6312866,38.4921875
	c13.3032532-22.1887207,22.3089905-46.6842041,26.5463257-72.2059937
	c-19.909668,16.4740906-36.6429749,36.446106-49.3761597,58.9328613c4.7823792-25.4386597,4.7823792-51.5457153,0-76.9843445
	c-13.1846313,22.2200317-22.0980835,46.7095642-26.2808533,72.2059631
	c-4.1827698-25.4963989-13.0962219-49.9859314-26.2808533-72.2059631
	C345.4039917,494.8370056,345.3138733,521.0569458,350.1459656,546.5887451z"/>
<path fill-rule="evenodd" clip-rule="evenodd" fill="#FFE600" d="M350.1459656,546.5887451
	c-4.7823792-25.4385986-4.7823792-51.5456848,0-76.984314c-13.1269836-21.9788513-29.7097473-41.6989136-49.1106873-58.4019165
	c-4.1151428,25.2293091-4.1151428,50.9586487,0,76.1879272
	C320.8550415,503.9866943,337.4953613,524.0450439,350.1459656,546.5887451z"/>
<path fill-rule="evenodd" clip-rule="evenodd" fill="#FFE600" d="M402.1767883,689.6734009
	c4.7823792,25.4386597,4.7823792,51.5457153,0,76.984375c13.2091064,21.9202271,29.7816162,41.6279907,49.1106873,58.4019165
	c4.0735779-25.225769,4.1631775-50.9345093,0.2654724-76.1879883
	C431.5777893,732.359375,414.8362732,712.2875977,402.1767883,689.6734009z"/>
<path fill-rule="evenodd" clip-rule="evenodd" fill="#FFE600" d="M300.7698364,487.3905029
	c-19.8676758-16.0983276-42.183197-28.914093-66.1003418-37.9612427
	c4.7224121,25.145813,13.5092773,49.3544617,26.0154114,71.6750488
	c24.3569031,8.5187378,46.8768921,21.5803833,66.3658142,38.4921875
	C313.8987122,537.3610229,304.9875488,512.8778076,300.7698364,487.3905029z"/>
<path fill-rule="evenodd" clip-rule="evenodd" fill="#FFE600" d="M451.552948,748.8717651
	c19.8303223,16.152771,42.1550293,28.9738159,66.1003113,37.9612427
	c-4.7223511-25.145813-13.5092468-49.3544922-26.0153809-71.6751099
	c-24.3635559-8.6781006-46.9425354-21.7217407-66.6312866-38.4921265
	C438.4655151,698.7796631,447.4826355,723.3060913,451.552948,748.8717651z"/>
<path fill-rule="evenodd" clip-rule="evenodd" fill="#FFE600" d="M310.3265076,580.0371704
	c-20.0242004-16.3584595-36.776825-36.3535156-49.3761597-58.9328613
	c-24.1851959-8.3258667-49.54953-12.7176208-75.1260834-13.0077209
	c13.1040344,21.9184875,29.589035,41.6288147,48.8452301,58.401947
	C260.5152283,566.2169189,286.182373,570.8099976,310.3265076,580.0371704z"/>
<path fill-rule="evenodd" clip-rule="evenodd" fill="#FFE600" d="M442.2617493,656.2250977
	c20.0242004,16.3584595,36.776825,36.3535156,49.3761902,58.9328003
	c24.1851807,8.3258667,49.5494995,12.7175903,75.1260986,13.0076904
	c-13.1040649-21.9185181-29.5890503-41.6288452-48.8452148-58.4019165
	C492.071228,670.067627,466.3998718,665.4738159,442.2617493,656.2250977z"/>
<path fill-rule="evenodd" clip-rule="evenodd" fill="#FFE600" d="M301.0353088,604.9906616
	c-24.4234924-8.4237671-47.0318298-21.3942871-66.6312714-38.2266846
	c-25.5851898,0.4360352-50.9404297,4.9157715-75.1260986,13.2731934
	c19.7866364,16.1416626,42.0074615,29.0440674,65.8348846,38.2266846
	C249.3406525,609.0322876,275.1124573,604.5267334,301.0353088,604.9906616z"/>
<path fill-rule="evenodd" clip-rule="evenodd" fill="#FFE600" d="M451.2874756,631.2715454
	c24.390625,8.6195679,46.9797668,21.6691284,66.6312866,38.4921875
	c25.5852051-0.4360352,50.9404297-4.9157715,75.1260986-13.2731934
	c-19.8452759-16.1981812-42.1627808-29.1047363-66.1003418-38.2266846
	C502.7756958,627.3477173,477.1023865,631.7617188,451.2874756,631.2715454z"/>
<path fill-rule="evenodd" clip-rule="evenodd" fill="#FFE600" d="M225.3782806,617.9984131
	c-23.8555908,9.1236572-46.0854034,22.031311-65.8348694,38.2266846
	c24.1856537,8.3573608,49.5408936,12.8370972,75.1260834,13.2731323
	c19.5994415-16.8323975,42.2077942-29.8028564,66.6312561-38.2266846
	C275.3742676,631.7825317,249.5935822,627.2754517,225.3782806,617.9984131z"/>
<path fill-rule="evenodd" clip-rule="evenodd" fill="#FFE600" d="M526.944519,617.9984131
	c23.9088745-9.1821289,46.2172241-22.083313,66.1002808-38.2266846
	c-24.1856689-8.3574219-49.5408936-12.8371582-75.1260986-13.2731934
	c-19.5993958,16.8323364-42.2077637,29.8029175-66.6312256,38.2266846
	C477.1085815,604.4540405,502.7577209,608.9538574,526.944519,617.9984131z"/>
<path fill-rule="evenodd" clip-rule="evenodd" fill="#FFE600" d="M310.3265076,656.2250977
	c-24.1381226,9.2487183-49.8094482,13.8425903-75.6570129,13.5386353
	c-19.3292999,16.7012329-35.8247986,36.4240723-48.8452301,58.4018555
	c25.5645142-0.4195557,50.9087067-4.8078003,75.1260834-13.0076904
	C273.3800049,692.4622192,290.1579895,672.4368896,310.3265076,656.2250977z"/>
<path fill-rule="evenodd" clip-rule="evenodd" fill="#FFE600" d="M442.2617493,580.0371704
	c24.1381226-9.2487793,49.8094177-13.8426514,75.6570129-13.5386353
	c19.3292847-16.7012939,35.8247681-36.4241943,48.8452148-58.401947
	c-25.5645142,0.4195862-50.9086914,4.8077698-75.1260986,13.0076599
	C479.0385742,543.6835938,462.2859497,563.6787109,442.2617493,580.0371704z"/>
<path fill-rule="evenodd" clip-rule="evenodd" fill="#FFE600" d="M349.8805237,766.6577759
	c4.9459839,25.1224365,13.8147583,49.3099976,26.2808533,71.6750488
	c12.3943481-22.3978882,21.2588806-46.5739136,26.2808533-71.6750488
	c-13.1430969-22.2396851-22.0536194-46.7212524-26.2808533-72.2060547
	C372.0551147,719.9681396,363.1365662,744.4716187,349.8805237,766.6577759z"/>
<path fill-rule="evenodd" clip-rule="evenodd" fill="#FFE600" d="M350.1459656,689.6734009
	c-12.5786133,22.5935669-29.334259,42.5923462-49.3761292,58.9329224c-3.9825439,25.2398071-3.9825439,50.9481201,0,76.1879272
	c19.3291016-16.7738647,35.9015503-36.4816284,49.1106873-58.4019165
	C345.3237915,741.0141602,345.4137573,715.0194702,350.1459656,689.6734009z"/>
<path fill-rule="evenodd" clip-rule="evenodd" fill="#FFE600" d="M260.6848755,715.1578979
	c-12.3919373,22.3726807-21.171936,46.5625-26.0153961,71.6751099
	c23.8888397-9.1069336,46.1952667-21.9175415,66.1003571-37.9612427c4.2608643-25.4759521,13.16922-49.951416,26.2808533-72.2059937
	C307.4945068,693.4832153,284.9932251,706.5339355,260.6848755,715.1578979z"/>
<path fill-rule="evenodd" clip-rule="evenodd" fill="#FFE600" d="M402.4422607,469.6044312
	c-4.9015503-25.1348267-13.7728577-49.3292236-26.2808533-71.6750793
	c-12.4361572,22.3787842-21.3031921,46.5615234-26.2808228,71.6750793
	c13.1846008,22.2200317,22.098053,46.7095337,26.2808228,72.2059937
	C380.3442078,516.3139648,389.2576599,491.8244629,402.4422607,469.6044312z"/>
<path fill-rule="evenodd" clip-rule="evenodd" fill="#FFE600" d="M402.1767883,546.5887451
	c12.5914001-22.5847168,29.3451843-42.5812073,49.3761597-58.9328003
	c4.0296021-25.2434387,3.9399414-50.9732056-0.2654724-76.1879578c-19.329071,16.7738953-35.9015808,36.48172-49.1106873,58.4019165
	C407.226593,495.193573,407.226593,521.2650757,402.1767883,546.5887451z"/>
<path fill-rule="evenodd" clip-rule="evenodd" fill="#FFE600" d="M491.6378784,521.1043091
	c12.3919373-22.3727417,21.1719971-46.5625,26.0153809-71.6750488
	c-23.8888245,9.1069336-46.1952515,21.9174805-66.1003113,37.9612427
	c-4.2373352,25.5217285-13.243042,50.0172729-26.5462952,72.2059937
	C444.6953735,542.8260498,467.2743225,529.7824707,491.6378784,521.1043091z"/>
</svg>
