<?xml version="1.0" encoding="UTF-8" standalone="no"?>
<svg
   xmlns:dc="http://purl.org/dc/elements/1.1/"
   xmlns:cc="http://creativecommons.org/ns#"
   xmlns:rdf="http://www.w3.org/1999/02/22-rdf-syntax-ns#"
   xmlns:svg="http://www.w3.org/2000/svg"
   xmlns="http://www.w3.org/2000/svg"
   xmlns:sodipodi="http://sodipodi.sourceforge.net/DTD/sodipodi-0.dtd"
   xmlns:inkscape="http://www.inkscape.org/namespaces/inkscape"
   width="1395.0685"
   height="442.43381"
   viewBox="0 0 1395.0685 442.43381"
   version="1.1"
   id="svg6076"
   sodipodi:docname="System U.svg"
   inkscape:version="0.92.2 (5c3e80d, 2017-08-06)">
  <title
     id="title4511">U rond</title>
  <metadata
     id="metadata6080">
    <rdf:RDF>
      <cc:Work
         rdf:about="">
        <dc:format>image/svg+xml</dc:format>
        <dc:type
           rdf:resource="http://purl.org/dc/dcmitype/StillImage" />
        <dc:title>U rond</dc:title>
      </cc:Work>
    </rdf:RDF>
  </metadata>
  <sodipodi:namedview
     pagecolor="#ffffff"
     bordercolor="#666666"
     borderopacity="1"
     objecttolerance="10"
     gridtolerance="10"
     guidetolerance="10"
     inkscape:pageopacity="0"
     inkscape:pageshadow="2"
     inkscape:window-width="1366"
     inkscape:window-height="705"
     id="namedview6078"
     showgrid="false"
     fit-margin-top="0"
     fit-margin-left="0"
     fit-margin-right="0"
     fit-margin-bottom="0"
     inkscape:zoom="0.73202722"
     inkscape:cx="694.71609"
     inkscape:cy="222.56842"
     inkscape:window-x="-8"
     inkscape:window-y="-8"
     inkscape:window-maximized="1"
     inkscape:current-layer="svg6076" />
  <!-- Generator: Sketch 43.2 (39069) - http://www.bohemiancoding.com/sketch -->
  <desc
     id="desc6043">Created with Sketch.</desc>
  <defs
     id="defs6045" />
  <g
     id="g6699"
     transform="matrix(13.641138,0,0,13.641138,420.80128,555.18372)">
    <path
       d="m 53.97488,-9.775359 c -8.098054,0 -14.659135,-6.550029 -14.659135,-14.630048 0,-8.076459 6.561081,-14.622928 14.659135,-14.622928 8.094486,0 14.659135,6.546469 14.659135,14.622928 0,8.080343 -6.564649,14.630048 -14.659135,14.630048"
       id="Shape"
       inkscape:connector-curvature="0"
       style="fill:#ffffff;fill-rule:nonzero;stroke:none;stroke-width:1" />
    <path
       d="m 56.249366,-40.557031 c -0.441729,-0.03689 -0.669081,-0.05113 -1.105621,-0.05113 0.781621,0.02298 1.568756,0.109054 2.355567,0.265354 8.344541,1.621246 13.685514,10.022602 11.932216,18.766652 -1.754918,8.74049 -9.940864,14.513874 -18.285405,12.894569 -0.371351,-0.07378 -0.737513,-0.159859 -1.096865,-0.259852 1.418919,0.437186 2.943568,0.676005 4.550919,0.676005 1.608973,0 2.85373,-0.217785 4.04173,-0.484756 5.153189,-1.16788 9.325297,-4.779278 11.407784,-9.302587 0.883783,-1.977532 1.371567,-4.162817 1.371567,-6.45489 -3.24e-4,-8.951155 -7.026162,-15.359122 -15.171892,-16.049366"
       id="path6063"
       inkscape:connector-curvature="0"
       style="fill:#54bbab;fill-rule:nonzero;stroke:none;stroke-width:1" />
    <path
       d="m 37.151204,-25.718584 c -0.614594,8.794856 6.202054,16.451603 15.497189,17.247017 -0.49654,-0.043686 -0.99827,-0.113908 -1.503567,-0.210665 -8.344541,-1.619304 -13.685514,-10.024543 -11.932216,-18.76827 1.742918,-8.682565 9.83027,-14.434915 18.11481,-12.925959 -0.695675,-0.133647 -1.401405,-0.228463 -2.123351,-0.279592 -9.456649,-0.646233 -17.436973,6.039061 -18.052865,14.937469"
       id="path6065"
       inkscape:connector-curvature="0"
       style="fill:#5bc5f2;fill-rule:nonzero;stroke:none;stroke-width:1" />
    <path
       d="m 57.499312,-40.343453 c -8.34454,-1.623188 -16.532108,4.150519 -18.287351,12.892628 -1.753297,8.745668 3.587676,17.148965 11.932216,18.76827 8.346162,1.619628 16.53373,-4.152461 18.287351,-12.89457 1.753298,-8.742108 -3.586054,-17.145729 -11.932216,-18.766328 M 53.97488,-9.775359 c -8.098054,0 -14.659135,-6.550029 -14.659135,-14.630048 0,-8.076459 6.561081,-14.622928 14.659135,-14.622928 8.094486,0 14.659135,6.546469 14.659135,14.622928 0,8.080343 -6.564649,14.630048 -14.659135,14.630048"
       id="path6067"
       inkscape:connector-curvature="0"
       style="fill:#007e92;fill-rule:nonzero;stroke:none;stroke-width:1" />
    <path
       d="m 62.115096,-31.375147 h -5.017297 c -0.918811,0 -1.045946,0.372466 -1.045946,0.934563 0,0 0.0019,8.137943 0.0019,8.148299 -0.06324,1.865565 -0.756973,2.462934 -2.089622,2.462934 -1.364108,0 -2.061405,-0.629082 -2.089621,-2.613733 v -7.997177 c 0,-0.562096 -0.132,-0.934562 -1.04919,-0.934562 h -5.018873 v 9.690909 c 0,2.144511 0.41546,3.05092 1.304433,3.971244 1.375135,1.431616 3.781297,2.034163 6.853297,2.034163 3.072,0 5.480108,-0.602547 6.858487,-2.034163 0.885405,-0.920324 1.304432,-1.826733 1.304432,-3.971244 z"
       id="path6069"
       inkscape:connector-curvature="0"
       style="fill:#e42313;fill-rule:nonzero;stroke:none;stroke-width:1" />
  </g>
  <g
     aria-label="Système"
     style="font-style:normal;font-variant:normal;font-weight:bold;font-stretch:normal;font-size:211.65176392px;line-height:1.25;font-family:'Neo Sans Std';-inkscape-font-specification:'Neo Sans Std Bold';letter-spacing:0px;word-spacing:0px;fill:#0386af;fill-opacity:1;stroke:none;stroke-width:5.2912941"
     id="text27">
    <path
       d="m 106.67249,263.95404 c 0,-17.14379 -6.56121,-31.11281 -28.572989,-42.96531 L 51.008075,206.38476 c -11.429195,-6.1379 -14.180668,-8.88937 -14.180668,-14.81562 0,-7.61947 4.444687,-11.21755 16.508838,-11.21755 14.39232,0 38.943924,1.90487 44.870174,2.32817 0.211652,0 0.423303,0 0.423303,0 2.751478,0 3.598078,-1.69321 3.598078,-3.59808 v -21.37683 c 0,-2.32817 -1.48156,-3.38642 -3.174774,-3.80973 C 91.010259,151.7786 69.633431,149.23878 54.182852,149.23878 13.12241,149.23878 3.0517578e-7,167.22918 3.0517578e-7,190.51088 3.0517578e-7,205.96146 5.2912944,219.29552 24.974908,230.93636 l 29.207944,17.35545 c 11.005892,6.5612 13.969016,9.94763 13.969016,16.08553 0,10.15929 -4.233035,14.81563 -18.837007,14.81563 -8.254418,0 -31.536113,-1.69322 -40.2138348,-2.53983 -0.2116518,0 -0.4233036,0 -0.6349553,0 -2.1165177,0 -3.8097318,1.05826 -3.8097318,4.02139 v 20.74187 c 0,2.32817 2.1165177,3.59808 4.2330353,4.23304 10.7942396,2.75147 23.2816936,4.65634 40.0021836,4.65634 42.965308,0 57.780932,-23.91665 57.780932,-46.35174 z"
       style="fill:#0386af;fill-opacity:1;stroke-width:5.2912941"
       id="path16" />
    <path
       d="m 234.11331,190.93418 c 0,-2.11652 -1.90487,-3.80973 -4.02139,-3.80973 h -28.14968 c -2.32817,0 -4.02138,1.90486 -4.44469,4.02138 l -19.68361,83.60245 c 0,0 -0.21165,0 -0.84661,0 -0.21165,0 -0.4233,0 -0.84661,0 h -0.21165 c -1.26991,0 -1.90486,-1.05826 -2.53982,-4.02138 l -19.04866,-79.58107 c -0.4233,-2.11652 -1.90486,-4.02138 -4.02138,-4.02138 h -28.14969 c -2.96312,0 -4.23303,1.26991 -4.23303,3.38643 0,0.4233 0,0.8466 0.21165,1.48156 l 27.93803,95.24329 c 5.2913,18.41371 11.8525,19.68362 19.68362,19.68362 h 3.17477 l -1.90486,6.5612 c -2.53982,8.46607 -6.34955,11.00589 -13.96902,11.00589 -6.98451,0 -19.47196,-1.26991 -26.45647,-1.69321 -0.21165,0 -0.21165,0 -0.4233,0 -2.32817,0 -4.23304,1.69321 -4.23304,4.02138 v 17.1438 c 0,2.32817 2.11652,2.96312 4.44469,3.80973 5.29129,1.69321 17.77875,3.38643 25.60986,3.38643 31.11281,0 39.79053,-11.64085 46.35174,-34.49924 l 35.5575,-124.66289 c 0,-0.4233 0.21165,-0.63496 0.21165,-1.05826 z"
       style="fill:#0386af;fill-opacity:1;stroke-width:5.2912941"
       id="path18" />
    <path
       d="m 336.29812,274.74828 c 0,-11.4292 -3.80973,-22.43509 -21.37683,-32.59437 l -26.24482,-15.02728 c -4.23303,-2.53982 -6.5612,-4.23303 -6.5612,-7.40781 0,-4.86799 2.96312,-6.1379 11.21754,-6.1379 10.79424,0 28.99629,1.90487 35.13419,2.75147 0.21165,0 0.42331,0 0.63496,0 2.11651,0 3.59808,-1.48156 3.59808,-4.02138 v -17.14379 c 0,-2.53983 -1.48157,-4.23304 -4.02139,-4.86799 -10.79424,-2.75148 -20.95352,-4.868 -37.67401,-4.868 -29.20794,0 -43.38861,11.4292 -43.38861,32.80603 0,13.75736 6.98451,24.5516 18.83701,31.32446 l 27.51472,15.87388 c 5.92625,3.38643 7.83112,5.7146 7.83112,8.88938 0,5.50294 -2.32817,8.25441 -12.48745,8.25441 -6.77286,0 -24.55161,-1.48156 -35.9808,-2.96312 -0.21166,0 -0.63496,0 -0.84661,0 -2.53982,0 -4.02138,1.90487 -4.02138,4.02138 v 17.1438 c 0,2.53982 1.48156,4.23303 4.02138,4.86799 10.79424,2.96312 26.87977,4.65634 38.52062,4.65634 30.90116,0 45.29348,-15.66224 45.29348,-35.5575 z"
       style="fill:#0386af;fill-opacity:1;stroke-width:5.2912941"
       id="path20" />
    <path
       d="m 426.68335,304.37953 v -16.50884 c 0,-2.32817 -1.69322,-3.59808 -4.44469,-3.59808 h -10.37094 c -6.34955,0 -6.9845,-1.48156 -6.9845,-9.94763 v -61.59067 h 17.35544 c 2.32817,0 4.23304,-1.90486 4.23304,-4.23303 v -17.1438 c 0,-2.32817 -1.90487,-4.23303 -4.23304,-4.23303 h -17.35544 v -22.43509 c 0,-2.11652 -1.69322,-3.59808 -3.80974,-3.59808 -0.21165,0 -0.4233,0 -0.63495,0 l -25.82152,4.44469 c -2.32817,0.4233 -4.23303,1.90486 -4.23303,4.23303 v 17.35545 h -16.93214 c -2.32817,0 -4.44469,2.11652 -4.44469,4.44469 v 13.96901 c 0,2.32817 2.11652,4.02139 4.44469,4.44469 l 16.93214,2.75147 v 61.37901 c 0,30.05455 12.2758,36.19246 35.5575,36.19246 6.1379,0 10.37093,-0.63496 16.72048,-1.69322 2.53983,-0.4233 4.02139,-2.11652 4.02139,-4.23303 z"
       style="fill:#0386af;fill-opacity:1;stroke-width:5.2912941"
       id="path22" />
    <path
       d="m 548.77996,253.37145 v -12.2758 c 0,-31.95942 -17.5671,-55.66442 -52.27799,-55.66442 -33.65263,0 -53.54789,21.58848 -53.54789,55.66442 v 14.81562 c 0,40.84879 27.51473,54.39451 53.12459,54.39451 18.4137,0 29.8429,-1.69322 43.38861,-5.07965 3.59808,-0.8466 4.44469,-2.32817 4.44469,-5.71459 V 283.426 c 0,-2.32817 -1.69321,-3.38643 -4.02138,-3.38643 -0.21166,0 -0.42331,0 -0.63496,0 -8.46607,0.84661 -27.30308,1.90487 -40.63714,1.90487 -16.72049,0 -21.80013,-11.00589 -21.80013,-23.07004 v -0.42331 h 67.51691 c 2.75148,0 4.44469,-1.90486 4.44469,-5.07964 z m -33.44098,-16.08553 h -38.52062 v -0.84661 c 0,-15.45058 7.83112,-23.49335 19.47196,-23.49335 11.8525,0 19.04866,7.83112 19.04866,23.49335 z m 4.23304,-63.70718 c 0,-0.63496 -0.21166,-1.26991 -0.84661,-2.11652 l -19.47196,-24.76326 c -1.90487,-2.32817 -2.75148,-3.17477 -5.7146,-3.17477 h -27.93803 c -1.48157,0 -2.32817,0.63495 -2.32817,1.48156 0,0.4233 0.21165,1.05826 0.8466,1.69321 l 25.82152,25.82152 c 1.69321,1.69321 2.32817,2.53982 5.07964,2.53982 h 22.64674 c 1.26991,0 1.90487,-0.63496 1.90487,-1.48156 z"
       style="fill:#0386af;fill-opacity:1;stroke-width:5.2912941"
       id="path24" />
    <path
       d="m 730.7674,303.95622 v -72.17325 c 0,-27.72638 -8.46607,-46.35174 -36.40411,-46.35174 -13.75736,0 -22.22343,3.38643 -34.49923,10.37094 -5.92625,-7.19616 -13.75737,-10.37094 -24.97491,-10.37094 -12.2758,0 -22.43509,4.65634 -31.32446,10.58259 v -4.65634 c 0,-2.32817 -1.90487,-4.23303 -4.23304,-4.23303 h -24.1283 c -2.32817,0 -4.23303,1.90486 -4.23303,4.23303 v 112.59874 c 0,2.32817 2.11651,4.44469 4.44468,4.44469 h 25.60987 c 2.32817,0 4.23303,-2.11652 4.23303,-4.44469 v -84.2374 c 6.56121,-3.38643 12.06415,-5.50295 16.08554,-5.50295 9.73598,0 12.2758,4.02139 12.2758,17.5671 v 72.17325 c 0,2.32817 2.11652,4.44469 4.44468,4.44469 h 25.60987 c 2.32817,0 4.23303,-2.11652 4.23303,-4.44469 v -72.17325 c 0,-4.65634 -0.21165,-9.52433 -0.63495,-13.75736 6.34955,-2.96313 12.6991,-3.80974 16.29718,-3.80974 9.73599,0 12.91076,4.02139 12.91076,17.5671 v 72.17325 c 0,2.32817 1.90487,4.44469 4.23304,4.44469 h 25.60986 c 2.32817,0 4.44469,-2.11652 4.44469,-4.44469 z"
       style="fill:#0386af;fill-opacity:1;stroke-width:5.2912941"
       id="path26" />
    <path
       d="m 858.81673,253.37145 v -12.2758 c 0,-31.95942 -17.56709,-55.66442 -52.27798,-55.66442 -33.65263,0 -53.5479,21.58848 -53.5479,55.66442 v 14.81562 c 0,40.84879 27.51473,54.39451 53.12459,54.39451 18.41371,0 29.8429,-1.69322 43.38862,-5.07965 3.59808,-0.8466 4.44468,-2.32817 4.44468,-5.71459 V 283.426 c 0,-2.32817 -1.69321,-3.38643 -4.02138,-3.38643 -0.21165,0 -0.4233,0 -0.63496,0 -8.46607,0.84661 -27.30307,1.90487 -40.63713,1.90487 -16.72049,0 -21.80014,-11.00589 -21.80014,-23.07004 v -0.42331 h 67.51692 c 2.75147,0 4.44468,-1.90486 4.44468,-5.07964 z m -33.44098,-16.08553 h -38.52062 v -0.84661 c 0,-15.45058 7.83112,-23.49335 19.47197,-23.49335 11.85249,0 19.04865,7.83112 19.04865,23.49335 z"
       style="fill:#0386af;fill-opacity:1;stroke-width:5.2912941"
       id="path28" />
  </g>
</svg>
